<svg width="30" height="30" viewBox="0 0 30 30" fill="none" xmlns="http://www.w3.org/2000/svg">
<path d="M8.76563 16.5996C5.72461 16.5996 3.84961 19.2773 3.84961 22.1719C3.84961 23.4199 3.21094 24.3457 2.00977 24.8906C1.88086 24.9492 1.83399 25.1133 1.91016 25.2305C2.88868 26.6719 5.61915 27.1816 7.49415 27.1816C7.98633 27.1816 8.42579 27.1465 8.77149 27.082C10.8574 26.707 13.4648 25.623 14.0859 22.5703C14.8008 19.0254 11.8066 16.5996 8.76563 16.5996V16.5996Z" fill="#555555"/>
<path d="M27.4043 3.53906C26.9531 3.08789 26.4199 2.8125 25.875 2.8125C25.5059 2.8125 25.1309 2.94141 24.7734 3.22266L15.0996 11.7363C14.7832 12.0176 14.373 12.1699 13.9453 12.1699H13.9394H13.9336C13.6055 12.1699 13.2832 12.293 13.0312 12.5098L9.89062 15.0762C9.76757 15.1816 9.73242 15.3574 9.80859 15.498C9.86132 15.5977 9.96093 15.668 10.0723 15.6797C12.7441 15.9434 15.1699 17.8477 15.1875 20.7539C15.1875 20.8535 15.2285 20.9531 15.3047 21.0176C15.4512 21.1406 15.6562 21.1172 15.7734 20.9824L18.416 17.9238C18.6211 17.6895 18.7559 17.3906 18.7676 17.0742V17.0039C18.7676 16.5645 18.9434 16.1367 19.2363 15.8086L27.7207 6.17578C28.418 5.29102 28.166 4.29492 27.4043 3.53906V3.53906Z" fill="#555555"/>
</svg>
