<svg width="30" height="30" viewBox="0 0 30 30" fill="none" xmlns="http://www.w3.org/2000/svg">
<path d="M15.1612 4.13811C15.8645 3.43509 16.8181 3.04016 17.8125 3.04016C18.8069 3.04016 19.7605 3.43509 20.4637 4.13811L27.7369 11.4112C28.4399 12.1145 28.8348 13.0681 28.8348 14.0625C28.8348 15.0569 28.4399 16.0105 27.7369 16.7137L17.4244 27.0262C16.7213 27.7295 15.7676 28.1248 14.7731 28.125H9.6C8.60552 28.1248 7.65185 27.7295 6.94875 27.0262L2.26125 22.3387C1.55823 21.6355 1.1633 20.6819 1.1633 19.6875C1.1633 18.6931 1.55823 17.7395 2.26125 17.0362L15.1594 4.13811H15.1612ZM16.3987 25.4006L6.47437 15.4762L3.58875 18.3619C3.23724 18.7135 3.03977 19.1903 3.03977 19.6875C3.03977 20.1847 3.23724 20.6615 3.58875 21.0131L8.27625 25.7006C8.6278 26.0523 9.10463 26.2499 9.60187 26.25H14.775C15.2722 26.2499 15.7491 26.0523 16.1006 25.7006L16.4006 25.4006H16.3987Z" fill="#555555"/>
</svg>
